<svg width="80" height="74" viewBox="0 0 80 74" fill="none" xmlns="http://www.w3.org/2000/svg">
<path d="M22.1833 13.0788C21.4956 9.89641 22.8846 7.02187 25.2859 6.65829C27.6871 6.29471 30.1912 8.57977 30.879 11.7621C31.5667 14.9445 30.1777 17.819 27.7764 18.1826C25.3752 18.5462 22.8711 16.2611 22.1833 13.0788Z" fill="#627655"/>
<path d="M32.6799 13.3562C32.3912 10.9856 33.6331 8.93792 35.4538 8.78258C37.2745 8.62724 38.9845 10.4231 39.2732 12.7937C39.5619 15.1643 38.3199 17.212 36.4992 17.3674C34.6785 17.5227 32.9686 15.7269 32.6799 13.3562Z" fill="#627655"/>
<path d="M40.9177 13.999C40.6703 11.9671 41.7406 10.2114 43.3085 10.0776C44.8763 9.94388 46.3479 11.4827 46.5953 13.5146C46.8427 15.5466 45.7724 17.3023 44.2045 17.436C42.6367 17.5698 41.1652 16.031 40.9177 13.999Z" fill="#627655"/>
<path d="M49.2418 19.2854C48.0235 19.2302 47.1204 17.8766 47.2248 16.2619C47.3292 14.6473 48.4014 13.3831 49.6197 13.4383C50.838 13.4935 51.7411 14.8471 51.6367 16.4617C51.5323 18.0764 50.4601 19.3406 49.2418 19.2854Z" fill="#627655"/>
<path d="M53.6897 21.444C52.6236 21.3957 51.8307 20.2543 51.9186 18.8947C52.0065 17.535 52.9419 16.4719 54.0079 16.5201C55.0739 16.5684 55.8669 17.7098 55.779 19.0695C55.6911 20.4292 54.7557 21.4923 53.6897 21.444Z" fill="#627655"/>
<path d="M24.7583 24.1432C25.0345 21.8317 28.2563 19.7513 32.5828 19.289C32.951 19.289 33.2272 19.212 33.5954 19.212C33.8715 19.1349 34.2397 19.1349 34.608 19.0579C35.5285 18.9808 36.449 18.9808 37.2775 18.9808C49.8887 18.3644 54.9516 27.4564 55.1357 29.845C55.9642 32.3877 54.3072 39.0911 54.3072 39.0911L49.0602 52.4979C49.4284 54.8094 49.2443 56.6586 48.8761 58.1997C48.5079 60.4341 47.0351 62.4374 44.8258 63.6703L44.7337 63.7473L44.6417 63.8244C43.8132 64.2867 43.1689 64.4408 43.1689 64.4408C42.3404 64.749 41.4199 64.9031 40.4073 64.9801C35.3444 65.2883 30.9258 61.9751 30.5576 57.6603C30.3735 55.2717 31.4782 53.0373 33.4113 51.4962C41.604 42.5584 35.9887 37.2419 35.9887 37.2419C25.1265 31.8483 23.8378 27.0712 24.7583 24.1432Z" fill="#627655"/>
</svg>
